#!OML:ASF F:\VICON\USERDATA\INSTALL\rory3\rory3.ASF
:FULLY-SPECIFIED
:DEGREES
61
root 1.09166 17.8445 -17.0112 6.7393 -3.80672 0.72105
lowerback 6.38716 -0.157503 -2.17239
upperback -0.534809 -0.298663 1.9348
thorax -4.11795 -0.0783705 3.25798
lowerneck -17.24 -4.10995 -9.90626
upperneck 16.4761 -4.44632 6.90235
head 8.3412 -2.0406 3.40413
rclavicle -1.2921e-014 1.19271e-015
rhumerus -31.0154 -4.91086 -83.2947
rradius 34.6783
rwrist 5.00318
rhand -14.1428 11.8447
rfingers 7.12502
rthumb 11.9914 -17.7918
lclavicle -1.2921e-014 1.19271e-015
lhumerus -29.5331 6.14261 86.5815
lradius 29.9048
lwrist -3.74032
lhand -17.0975 26.1979
lfingers 7.12502
lthumb 9.14128 55.9798
rfemur -10.2901 6.31529 17.9303
rtibia 20.3638
rfoot -11.1434 -9.74066
rtoes 3.60395
lfemur -8.67105 -2.14977 -20.3549
ltibia 17.0381
lfoot -11.0472 8.42608
ltoes -1.06813
62
root 1.09258 17.8463 -17.0042 6.71727 -3.81656 0.723839
lowerback 6.34826 -0.13439 -2.15553
upperback -0.467642 -0.266884 1.91941
thorax -4.0286 -0.0654293 3.22827
lowerneck -17.3505 -4.12227 -9.93117
upperneck 16.5356 -4.45643 6.94313
head 8.38322 -2.0412 3.42074
rclavicle 6.4605e-015 2.38542e-015
rhumerus -30.9274 -4.94886 -83.3306
rradius 34.5519
rwrist 4.73827
rhand -14.4181 13.09
rfingers 7.12502
rthumb 11.7259 -16.5619
lclavicle 6.4605e-015 2.38542e-015
lhumerus -29.3906 6.47788 86.3854
lradius 30.1055
lwrist -5.47956
lhand -16.3656 24.0086
lfingers 7.12502
lthumb 9.84749 53.7583
rfemur -10.2005 6.37392 17.9257
rtibia 20.3397
rfoot -11.1063 -9.78738
rtoes 3.67005
lfemur -8.61665 -2.13766 -20.3683
ltibia 17.0323
lfoot -11.0424 8.44742
ltoes -0.956856
63
root 1.09237 17.8452 -17.002 6.71174 -3.79617 0.73434
lowerback 6.39286 -0.10081 -2.1573
upperback -0.423185 -0.223674 1.90359
thorax -4.01068 -0.0449408 3.20867
lowerneck -17.4231 -4.19562 -9.88983
upperneck 16.4707 -4.55172 6.91182
head 8.38117 -2.08476 3.3894
rclavicle -9.93923e-016 7.95139e-015
rhumerus -30.8812 -4.97741 -83.356
rradius 34.4969
rwrist 4.36714
rhand -14.5743 13.7739
rfingers 7.12502
rthumb 11.5753 -15.8864
lclavicle -9.93923e-016 7.95139e-015
lhumerus -29.3299 6.42228 86.3972
lradius 30.3258
lwrist -5.99189
lhand -14.1914 28.1178
lfingers 7.12502
lthumb 11.9446 57.757
rfemur -10.1882 6.44253 17.924
rtibia 20.3525
rfoot -11.004 -9.85962
rtoes 3.69473
lfemur -8.57695 -2.10258 -20.3777
ltibia 16.9751
lfoot -11.0377 8.38549
ltoes -0.673607
64
root 1.09404 17.8454 -16.9971 6.77305 -3.68139 0.767086
lowerback 6.35218 -0.111786 -2.14112
upperback -0.410642 -0.237335 1.88348
thorax -3.97384 -0.0530269 3.17937
lowerneck -17.4534 -4.23569 -9.86752
upperneck 16.4534 -4.60572 6.89616
head 8.38471 -2.10965 3.37283
rclavicle -5.76476e-015 -2.3059e-014
rhumerus -30.8231 -4.99851 -83.3815
rradius 34.3615
rwrist 4.05846
rhand -14.7877 13.9959
rfingers 7.12502
rthumb 11.3695 -15.6758
lclavicle -5.76476e-015 -2.3059e-014
lhumerus -29.3618 5.99001 86.6202
lradius 30.2744
lwrist -4.33654
lhand -15.9911 27.5306
lfingers 7.12502
lthumb 10.2087 57.2629
rfemur -10.2336 6.40154 17.8861
rtibia 20.3583
rfoot -10.9687 -9.88981
rtoes 4.10615
lfemur -8.61871 -2.14817 -20.4044
ltibia 16.9433
lfoot -11.0658 8.27023
ltoes -0.222235
65
root 1.09547 17.8466 -16.9917 6.84028 -3.56207 0.816157
lowerback 6.26362 -0.151117 -2.16317
upperback -0.386197 -0.290591 1.87551
thorax -3.89471 -0.0806804 3.18748
lowerneck -17.4563 -4.26777 -9.87392
upperneck 16.3842 -4.64543 6.89909
head 8.3658 -2.12792 3.3689
rclavicle 1.42131e-014 -1.35174e-014
rhumerus -30.7417 -4.84162 -83.4529
rradius 34.3888
rwrist 3.9748
rhand -14.5049 14.1035
rfingers 7.12502
rthumb 11.6422 -15.5531
lclavicle 1.42131e-014 -1.35174e-014
lhumerus -29.3452 6.03836 86.5911
lradius 30.6943
lwrist -5.20082
lhand -14.666 29.4277
lfingers 7.12502
lthumb 11.4869 59.093
rfemur -10.2662 6.35973 17.8331
rtibia 20.37
rfoot -11.052 -9.94085
rtoes 4.23912
lfemur -8.70494 -2.22548 -20.4501
ltibia 16.9587
lfoot -11.1113 8.2062
ltoes -0.101533
66
root 1.09735 17.8466 -16.9861 6.82886 -3.50932 0.843452
lowerback 6.35543 -0.177773 -2.18186
upperback -0.458563 -0.328457 1.87972
thorax -4.01882 -0.0961349 3.20774
lowerneck -17.2746 -4.21731 -9.8874
upperneck 16.3594 -4.58899 6.89572
head 8.32056 -2.10578 3.37863
rclavicle -3.67752e-015 -9.14409e-015
rhumerus -30.9035 -4.61374 -83.5033
rradius 34.6315
rwrist 4.01711
rhand -13.4934 13.921
rfingers 7.12502
rthumb 12.6176 -15.6779
lclavicle -3.67752e-015 -9.14409e-015
lhumerus -29.5134 5.76128 86.7368
lradius 30.3342
lwrist -3.45905
lhand -17.434 26.4745
lfingers 7.12502
lthumb 8.81654 56.2703
rfemur -10.233 6.23195 17.8007
rtibia 20.3936
rfoot -11.15 -9.91815
rtoes 3.88649
lfemur -8.70184 -2.17477 -20.4919
ltibia 16.9902
lfoot -11.1696 8.1126
ltoes -0.26657
67
root 1.0993 17.8417 -16.9809 6.78695 -3.445 0.8702
lowerback 6.4399 -0.168122 -2.15627
upperback -0.457277 -0.316217 1.84542
thorax -4.06622 -0.0902222 3.15727
lowerneck -17.2151 -4.20436 -9.86406
upperneck 16.3136 -4.5878 6.92772
head 8.29469 -2.10135 3.38596
rclavicle 1.78906e-015 3.02153e-014
rhumerus -30.9218 -4.71716 -83.4815
rradius 34.8696
rwrist 4.71788
rhand -13.1241 12.9511
rfingers 7.12502
rthumb 12.9735 -16.6256
lclavicle 1.78906e-015 3.02153e-014
lhumerus -29.5715 5.4351 86.8524
lradius 30.3367
lwrist -2.6505
lhand -18.3898 25.6936
lfingers 7.12502
lthumb 7.89411 55.5262
rfemur -10.1814 6.19423 17.767
rtibia 20.4206
rfoot -11.1959 -9.95978
rtoes 3.6282
lfemur -8.66998 -2.20968 -20.5304
ltibia 17.0451
lfoot -11.2313 8.09905
ltoes -0.279091
68
root 1.09813 17.8397 -16.9782 6.77829 -3.39421 0.847614
lowerback 6.44047 -0.125971 -2.13118
upperback -0.357294 -0.259329 1.82252
thorax -3.96681 -0.0655571 3.1128
lowerneck -17.3507 -4.2734 -9.78717
upperneck 16.2691 -4.69043 6.94255
head 8.31131 -2.14053 3.36345
rclavicle 7.05686e-015 -1.03368e-014
rhumerus -30.8111 -4.83307 -83.5184
rradius 35.1955
rwrist 5.16498
rhand -13.8153 11.9957
rfingers 7.12502
rthumb 12.3072 -17.6221
lclavicle 7.05686e-015 -1.03368e-014
lhumerus -29.4311 5.32181 86.8557
lradius 30.6029
lwrist -3.01623
lhand -17.8868 25.6876
lfingers 7.12502
lthumb 8.37961 55.5014
rfemur -10.18 6.22157 17.8039
rtibia 20.4564
rfoot -11.1689 -10.0593
rtoes 3.52445
lfemur -8.69087 -2.27086 -20.4975
ltibia 17.1217
lfoot -11.1874 8.10685
ltoes -0.177046
69
root 1.09772 17.8438 -16.9772 6.80285 -3.31501 0.825682
lowerback 6.42331 -0.132786 -2.12402
upperback -0.277798 -0.267352 1.83635
thorax -3.87399 -0.0719868 3.12305
lowerneck -17.4542 -4.30999 -9.86831
upperneck 16.2488 -4.7202 7.00237
head 8.32907 -2.15154 3.39225
rclavicle 1.14301e-014 4.77083e-015
rhumerus -30.7596 -4.3953 -83.7549
rradius 35.1503
rwrist 3.63101
rhand -15.397 13.2911
rfingers 7.12502
rthumb 10.7818 -16.4122
lclavicle 1.14301e-014 4.77083e-015
lhumerus -29.4166 5.25065 86.864
lradius 30.9419
lwrist -3.18941
lhand -17.5561 25.6028
lfingers 7.12502
lthumb 8.69872 55.4036
rfemur -10.1912 6.24908 17.8459
rtibia 20.5152
rfoot -11.1708 -10.1989
rtoes 3.55067
lfemur -8.75498 -2.31294 -20.4624
ltibia 17.2296
lfoot -11.2005 8.07792
ltoes 0.09917
70
root 1.09885 17.8445 -16.9779 6.76605 -3.2464 0.822256
lowerback 6.57357 -0.162073 -2.1307
upperback -0.280808 -0.308041 1.86125
thorax -3.95875 -0.0904314 3.15832
lowerneck -17.3091 -4.29003 -9.95915
upperneck 16.1574 -4.68932 7.05175
head 8.27362 -2.13993 3.42841
rclavicle -5.76476e-015 -3.97569e-015
rhumerus -30.8307 -4.17232 -83.7928
rradius 35.3994
rwrist 3.92619
rhand -15.4461 12.8538
rfingers 7.12502
rthumb 10.7344 -16.8519
lclavicle -5.76476e-015 -3.97569e-015
lhumerus -29.5292 5.08592 86.9546
lradius 31.1485
lwrist -2.68902
lhand -17.8912 25.5545
lfingers 7.12502
lthumb 8.3753 55.3685
rfemur -10.1688 6.25925 17.8652
rtibia 20.5945
rfoot -11.2539 -10.2751
rtoes 3.54078
lfemur -8.7734 -2.30607 -20.4513
ltibia 17.3395
lfoot -11.2757 7.99301
ltoes 0.0524484
71
root 1.09619 17.84 -16.9829 6.84142 -3.11559 0.726039
lowerback 6.71344 -0.227034 -2.13906
upperback -0.367983 -0.392214 1.97641
thorax -4.12153 -0.127117 3.29399
lowerneck -17.0669 -4.25321 -10.0523
upperneck 16.0088 -4.62992 7.03961
head 8.17789 -2.1225 3.4477
rclavicle 1.40143e-014 2.78299e-014
rhumerus -30.9323 -3.73222 -83.8488
rradius 35.6296
rwrist 3.65529
rhand -15.5442 12.5692
rfingers 7.12502
rthumb 10.6398 -17.1414
lclavicle 1.40143e-014 2.78299e-014
lhumerus -29.668 5.20631 87.0151
lradius 31.3711
lwrist -2.89788
lhand -17.7329 25.7699
lfingers 7.12502
lthumb 8.52808 55.5777
rfemur -10.2958 6.34259 17.9984
rtibia 20.6898
rfoot -11.2949 -10.4647
rtoes 3.33204
lfemur -8.9927 -2.23056 -20.3071
ltibia 17.465
lfoot -11.3265 7.82543
ltoes -0.297226
72
root 1.09505 17.8377 -16.9864 6.90143 -2.947 0.705759
lowerback 6.84615 -0.293218 -2.20228
upperback -0.391205 -0.483235 2.07349
thorax -4.21274 -0.168007 3.44243
lowerneck -17.0877 -4.22848 -10.127
upperneck 15.9728 -4.5607 6.97972
head 8.16365 -2.09958 3.44775
rclavicle 1.03368e-014 9.54166e-015
rhumerus -30.9712 -3.97649 -83.4991
rradius 36.8514
rwrist 7.37863
rhand -11.8603 7.54982
rfingers 7.12502
rthumb 14.1916 -21.9454
lclavicle 1.03368e-014 9.54166e-015
lhumerus -29.7356 5.48006 86.9955
lradius 31.7157
lwrist -3.79798
lhand -16.8418 26.1738
lfingers 7.12502
lthumb 9.38796 55.9447
rfemur -10.3959 6.37251 18.0418
rtibia 20.8017
rfoot -11.3685 -10.6088
rtoes 3.51896
lfemur -9.18536 -2.21938 -20.2586
ltibia 17.6088
lfoot -11.3591 7.70289
ltoes -0.461378
